<svg xmlns="http://www.w3.org/2000/svg" width="1272.554" height="840.825" viewBox="0 0 1272.554 840.825">
  <g id="Group_1" data-name="Group 1" transform="translate(-110 -586)">
    <path id="Path_1" data-name="Path 1" d="M1014.174,51.64h-33.19l-92.87,328.744-676.9,6.322C112.974,388.6,30.346,488.68,0,566H1081.061l45.455-181.5h1.517l35.972-127.451C1192.771,154.309,1117.982,51.64,1014.174,51.64Z" transform="translate(110 860.828)" fill="#192935"/>
    <path id="Path_2" data-name="Path 2" d="M1186.064,0H105.445L59.927,181.5H58.41L22.438,308.956c-28.955,102.732,45.834,205.4,149.642,205.4h33.19l92.87-328.744,676.833-6.322c98.307-1.77,181.188-101.847,211.6-179.165Z" transform="translate(195.985 586)" fill="#192935"/>
    <path id="Path_3" data-name="Path 3" d="M368.12,84.984a76.876,76.876,0,0,0,60.5-33.064h-316.1L106.9,81.507l-.7,3.856h-.443L76.486,238.1l-1.9,9.8c-4.425,10.178-1.707,13.023,6.322,13.529h316.1a76.876,76.876,0,0,0-60.5-33.064l-193.769-1.138-1.517-6.322L174.351,85.932Z" transform="translate(495.715 862.318)" fill="#78aeb1"/>
  </g>
</svg>
