<svg xmlns="http://www.w3.org/2000/svg" width="1532.094" height="302.649" viewBox="0 0 1532.094 302.649"><defs><style>.a,.c{fill:#192935;}.b,.g{fill:#78aeb1;}.c{font-size:26px;font-family:SegoeUI-Bold, Segoe UI;font-weight:700;}.d{letter-spacing:-0.06em;}.e{letter-spacing:-0.08em;}.f{letter-spacing:-0.04em;}.g{stroke:#7aaeb1;stroke-miterlimit:10;stroke-width:5px;}</style></defs><path class="a" d="M405.779,247.24H394.341l-32,113.286L129.1,362.7c-33.855.588-62.329,35.076-72.808,61.741H428.828l15.664-62.569h.523l12.4-43.9C467.411,282.62,441.573,247.24,405.779,247.24Z" transform="translate(-56.29 -134.738)"/><path class="a" d="M475.594,195.6H103.208L87.544,258.147h-.523l-12.4,43.9c-10,35.4,15.773,70.891,51.567,70.891h11.416L169.633,259.65l233.239-2.179c33.855-.588,62.438-35.075,72.9-61.719Z" transform="translate(-37.241 -195.6)"/><path class="b" d="M230.639,258.892A26.513,26.513,0,0,0,251.51,247.52H142.581l-1.939,10.2-.261,1.329h-.218l-10.021,52.7-.632,3.377c-1.547,3.486-.588,4.488,2.179,4.662H240.617a26.469,26.469,0,0,0-20.871-11.394L152.995,308l-.545-2.179,11.438-46.513Z" transform="translate(29.135 -134.408)"/><path class="b" d="M361.505,333.2a32.918,32.918,0,0,1-5.25,18.3A35.1,35.1,0,0,1,340.9,364.221a57.712,57.712,0,0,1-23.964,4.6q-16.623,0-27.428-6.3a36.553,36.553,0,0,1-12.439-12.047,27.362,27.362,0,0,1-4.793-14.684,9.934,9.934,0,0,1,10.2-10.021,8.712,8.712,0,0,1,6.078,2.179,18.318,18.318,0,0,1,4.248,6.819,46.048,46.048,0,0,0,4.641,8.954,18.626,18.626,0,0,0,7.015,5.948A26.143,26.143,0,0,0,316.321,352a26.841,26.841,0,0,0,16.426-4.706,14.182,14.182,0,0,0,6.318-11.764,12.33,12.33,0,0,0-3.42-9.063,22.07,22.07,0,0,0-8.714-5.338q-5.381-1.83-14.444-3.9a106.766,106.766,0,0,1-20.261-6.536,32.809,32.809,0,0,1-12.941-10.348,26.858,26.858,0,0,1-4.771-16.274,27.974,27.974,0,0,1,5.054-16.47,31.892,31.892,0,0,1,14.618-11.067,60.126,60.126,0,0,1,22.526-3.856,55.471,55.471,0,0,1,17.886,2.571,37.251,37.251,0,0,1,12.505,6.819,28.125,28.125,0,0,1,7.276,8.91,20.435,20.435,0,0,1,2.309,9.107,10.717,10.717,0,0,1-2.876,7.32,9.128,9.128,0,0,1-7.168,3.268,8.213,8.213,0,0,1-5.926-1.961,26.137,26.137,0,0,1-4.357-6.405A29.237,29.237,0,0,0,329,272.394q-4.358-3.573-13.791-3.551a23.964,23.964,0,0,0-14.2,3.856,11.285,11.285,0,0,0-5.4,9.3,9.389,9.389,0,0,0,1.852,5.839,15.246,15.246,0,0,0,5.054,4.2,32.927,32.927,0,0,0,6.536,2.745c2.179.675,5.817,1.634,10.893,2.919a170.963,170.963,0,0,1,17.1,4.924,52.092,52.092,0,0,1,13.071,6.536,26.794,26.794,0,0,1,8.431,9.695A30.894,30.894,0,0,1,361.505,333.2Z" transform="translate(198.261 -128.346)"/><path class="a" d="M400.925,272.337H376.111V353.9a14.9,14.9,0,0,1-3.159,10.457,11.416,11.416,0,0,1-16.34,0,14.924,14.924,0,0,1-3.181-10.414v-81.61H328.617a12.483,12.483,0,0,1-8.714-2.571,9.52,9.52,0,0,1,.109-13.66,12.7,12.7,0,0,1,8.54-2.527h72.307a12.786,12.786,0,0,1,8.714,2.593,8.715,8.715,0,0,1,2.876,6.819,8.583,8.583,0,0,1-2.92,6.776A12.765,12.765,0,0,1,400.925,272.337Z" transform="translate(251.06 -127.308)"/><path class="a" d="M438.8,354.159l-5.359-14.1h-45.75l-5.359,14.4a50.116,50.116,0,0,1-5.359,11.372,8.54,8.54,0,0,1-7.276,2.963,10.72,10.72,0,0,1-7.582-3.159,9.586,9.586,0,0,1-3.29-7.124,16.232,16.232,0,0,1,.763-4.749c.523-1.634,1.351-3.9,2.527-6.8l28.736-72.917c.806-2.179,1.787-4.619,2.941-7.56a38.445,38.445,0,0,1,3.682-7.3,15.053,15.053,0,0,1,5.315-4.727,18.3,18.3,0,0,1,15.773,0,15.25,15.25,0,0,1,5.142,4.64,32.224,32.224,0,0,1,3.289,6.1c.893,2.178,2.026,5.054,3.42,8.714l29.324,72.438a36.31,36.31,0,0,1,3.442,12.026,9.891,9.891,0,0,1-3.246,7.167,10.7,10.7,0,0,1-7.843,3.268,10.244,10.244,0,0,1-4.6-.959,9.7,9.7,0,0,1-3.225-2.614,23.137,23.137,0,0,1-2.788-5.054C440.365,357.949,439.515,355.9,438.8,354.159Zm-45.031-31.067h33.55l-16.928-46.338Z" transform="translate(300.267 -128.326)"/><path class="a" d="M510.587,331.419a29.912,29.912,0,0,1-2.636,11.612,42.03,42.03,0,0,1-8.3,12.244,42.508,42.508,0,0,1-14.488,9.76,51.872,51.872,0,0,1-20.522,3.769,71.216,71.216,0,0,1-16.165-1.7,45.013,45.013,0,0,1-13.2-5.25,44.3,44.3,0,0,1-10.893-9.368,55.957,55.957,0,0,1-7.581-11.83,62.139,62.139,0,0,1-4.706-13.987,76.225,76.225,0,0,1-1.569-15.773,69.882,69.882,0,0,1,3.943-24.291,51.533,51.533,0,0,1,11.285-18.344,49.415,49.415,0,0,1,17.233-11.59,55.834,55.834,0,0,1,21.067-3.987,52.657,52.657,0,0,1,24.269,5.425,44.156,44.156,0,0,1,16.318,13.442A26.489,26.489,0,0,1,510.3,286.8a9.87,9.87,0,0,1-2.745,6.884,8.714,8.714,0,0,1-6.667,2.985,9.149,9.149,0,0,1-6.536-2.07,28.84,28.84,0,0,1-4.858-7.124,34.445,34.445,0,0,0-10.457-12.483,25.577,25.577,0,0,0-14.814-4.117A26.839,26.839,0,0,0,441.9,281.507q-8.3,10.653-8.3,30.261a56.36,56.36,0,0,0,3.66,21.786,27.494,27.494,0,0,0,10.435,13.072,28.757,28.757,0,0,0,15.773,4.357,27.8,27.8,0,0,0,16.579-4.859,29.429,29.429,0,0,0,10.218-14.291,24.1,24.1,0,0,1,3.616-7.233,8.084,8.084,0,0,1,6.884-2.81,9.716,9.716,0,0,1,6.972,2.832A9.456,9.456,0,0,1,510.587,331.419Z" transform="translate(361.195 -128.331)"/><path class="a" d="M466.283,354.937V266.465a14.966,14.966,0,0,1,3.137-10.348,10.566,10.566,0,0,1,8.126-3.442,10.892,10.892,0,0,1,8.322,3.4,14.835,14.835,0,0,1,3.159,10.392v88.451a14.921,14.921,0,0,1-3.159,10.414,10.892,10.892,0,0,1-8.322,3.464,10.5,10.5,0,0,1-8.083-3.486A15.01,15.01,0,0,1,466.283,354.937Z" transform="translate(426.871 -128.342)"/><path class="a" d="M564.557,354.164l-5.36-14.1H513.556l-5.359,14.4a50.092,50.092,0,0,1-5.36,11.372,8.561,8.561,0,0,1-7.276,2.963,10.628,10.628,0,0,1-7.581-3.159,9.586,9.586,0,0,1-3.29-7.124,15.551,15.551,0,0,1,.762-4.749c.5-1.634,1.351-3.9,2.528-6.8l28.713-72.917c.828-2.179,1.808-4.618,2.941-7.56a38.46,38.46,0,0,1,3.681-7.3,15.122,15.122,0,0,1,5.142-4.727,15.707,15.707,0,0,1,7.842-1.787,15.927,15.927,0,0,1,7.93,1.786,15.251,15.251,0,0,1,5.12,4.64,32.3,32.3,0,0,1,3.312,6.1q1.328,3.246,3.4,8.714l29.346,72.438a36.876,36.876,0,0,1,3.442,12.026,9.915,9.915,0,0,1-3.268,7.167,10.634,10.634,0,0,1-7.843,3.268,10.306,10.306,0,0,1-4.6-.959,9.694,9.694,0,0,1-3.224-2.614,25.067,25.067,0,0,1-2.788-5.054C566.125,357.955,565.276,355.907,564.557,354.164ZM519.526,323.1h33.55l-16.928-46.339Z" transform="translate(448.616 -128.332)"/><path class="b" d="M656.195,331.4a29.9,29.9,0,0,1-2.637,11.612,41.705,41.705,0,0,1-8.322,12.244,42.209,42.209,0,0,1-14.466,9.76,52.022,52.022,0,0,1-20.479,3.813,71.224,71.224,0,0,1-16.165-1.7,44.77,44.77,0,0,1-13.2-5.251,44.291,44.291,0,0,1-10.893-9.368,55.978,55.978,0,0,1-7.582-11.83,61.113,61.113,0,0,1-4.727-13.987,76.255,76.255,0,0,1-1.569-15.773,70.384,70.384,0,0,1,3.943-24.291A51.887,51.887,0,0,1,571.4,268.282a49.413,49.413,0,0,1,17.233-11.59A55.685,55.685,0,0,1,609.7,252.7a52.719,52.719,0,0,1,24.27,5.424,44.166,44.166,0,0,1,16.318,13.442,26.648,26.648,0,0,1,5.664,15.25,9.871,9.871,0,0,1-2.745,6.884,8.713,8.713,0,0,1-6.666,2.984,9.149,9.149,0,0,1-6.536-2.069,28.318,28.318,0,0,1-4.858-7.124,34.444,34.444,0,0,0-10.457-12.483,25.62,25.62,0,0,0-14.815-4.118,26.84,26.84,0,0,0-22.33,10.631q-8.3,10.653-8.322,30.261a56.335,56.335,0,0,0,3.681,21.786,27.584,27.584,0,0,0,10.414,13.072A28.865,28.865,0,0,0,609.115,351a27.843,27.843,0,0,0,16.579-4.858,29.43,29.43,0,0,0,10.218-14.292,24.643,24.643,0,0,1,3.594-7.233,8.148,8.148,0,0,1,6.906-2.81,9.717,9.717,0,0,1,6.971,2.832A9.456,9.456,0,0,1,656.195,331.4Z" transform="translate(532.833 -128.307)"/><path class="a" d="M663.668,252.693a59.911,59.911,0,0,1,30,7.08,45.949,45.949,0,0,1,18.954,20.152,68.579,68.579,0,0,1,6.426,30.674,75.548,75.548,0,0,1-3.507,23.66,51.1,51.1,0,0,1-10.588,18.453,46.189,46.189,0,0,1-17.3,11.96,62.763,62.763,0,0,1-23.506,4.139,61.478,61.478,0,0,1-23.594-4.357,46.588,46.588,0,0,1-17.429-11.982A50.8,50.8,0,0,1,612.623,334a75.184,75.184,0,0,1-3.551-23.507,72.973,72.973,0,0,1,3.7-23.746,51.163,51.163,0,0,1,10.763-18.387,46.55,46.55,0,0,1,17.167-11.612A61.745,61.745,0,0,1,663.668,252.693Zm32.395,57.754a52.546,52.546,0,0,0-3.987-21.372A29.782,29.782,0,0,0,680.7,275.394a31.217,31.217,0,0,0-16.97-4.619,30.894,30.894,0,0,0-12.592,2.549,27.873,27.873,0,0,0-9.957,7.472,35.725,35.725,0,0,0-6.535,12.527,56.442,56.442,0,0,0-2.418,17.123,57.814,57.814,0,0,0,2.419,17.3,35.457,35.457,0,0,0,6.819,12.832,28.559,28.559,0,0,0,10.108,7.625,31.873,31.873,0,0,0,28.562-1.852,29.954,29.954,0,0,0,11.633-13.464A51.978,51.978,0,0,0,696.063,310.447Z" transform="translate(595.206 -128.339)"/><path class="a" d="M699.148,317.762h-7.973v36.078a15.009,15.009,0,0,1-3.137,10.5,10.675,10.675,0,0,1-8.191,3.377,10.477,10.477,0,0,1-8.431-3.53,15.682,15.682,0,0,1-2.985-10.348V267.546c0-4.9,1.111-8.453,3.289-10.653s5.752-3.29,10.654-3.29H719.41a111.861,111.861,0,0,1,13.071.654,32.68,32.68,0,0,1,9.8,2.636,28.165,28.165,0,0,1,9.346,6.361,27.54,27.54,0,0,1,6.166,9.608,31.844,31.844,0,0,1,2.179,11.612,28.127,28.127,0,0,1-7.08,20.065q-7.081,7.495-21.5,10.632a41.387,41.387,0,0,1,11.568,9.5,103.612,103.612,0,0,1,16.579,26.143,25.222,25.222,0,0,1,2.418,7.843,7.862,7.862,0,0,1-1.416,4.357,9.912,9.912,0,0,1-3.856,3.464A12.418,12.418,0,0,1,751,367.738a11.064,11.064,0,0,1-6.427-1.808,17.1,17.1,0,0,1-4.466-4.553q-1.9-2.788-5.1-8.126L725.879,338a85.23,85.23,0,0,0-8.714-12.723,21.782,21.782,0,0,0-7.864-5.969A26.949,26.949,0,0,0,699.148,317.762ZM712.22,270.6h-21v30.871h20.37a56.289,56.289,0,0,0,13.79-1.438,16.145,16.145,0,0,0,8.54-4.815,13.791,13.791,0,0,0,2.963-9.39,14.618,14.618,0,0,0-2.374-8.235,14.418,14.418,0,0,0-6.536-5.316q-4.1-1.656-15.795-1.678Z" transform="translate(665.125 -127.244)"/><path class="a" d="M763.862,322.029H743.035v31.786a14.79,14.79,0,0,1-3.224,10.348,10.478,10.478,0,0,1-8.1,3.529,10.655,10.655,0,0,1-8.278-3.486,14.878,14.878,0,0,1-3.137-10.239v-86.4c0-5.011,1.133-8.584,3.442-10.741s5.948-3.2,10.893-3.2H763.8a76.453,76.453,0,0,1,19.912,1.983,29.852,29.852,0,0,1,11.917,6.361,28.846,28.846,0,0,1,7.624,10.893,38.672,38.672,0,0,1,2.593,14.488q0,17.167-10.567,25.99T763.862,322.029Zm-5.512-51.458H743.1v34.313H758.35a45.375,45.375,0,0,0,13.442-1.7,15.666,15.666,0,0,0,8.235-5.512,16.355,16.355,0,0,0,2.832-10.022,17.079,17.079,0,0,0-4.357-12.113c-3.268-3.268-10-4.923-20.152-4.923Z" transform="translate(726.247 -127.263)"/><text class="c" transform="translate(855.385 295.649)"><tspan x="0" y="0">INNO</tspan><tspan class="d" y="0">V</tspan><tspan class="e" y="0">A</tspan><tspan y="0">TING FOR </tspan><tspan class="f" y="0">Y</tspan><tspan y="0">OU</tspan></text><line class="g" x2="324.609" transform="translate(507.893 286.898)"/><line class="g" x2="324.609" transform="translate(1150.576 286.898)"/></svg>